0
SECTION
2
ENTITIES
0
POLYLINE
70
64
71
42
72
60
0
VERTEX
10
0.5
20
0.5
30
0.0
70
192
0
VERTEX
10
0.50052
20
0.50116
30
0.07352
70
192
0
VERTEX
10
0.49987
20
0.50248
30
-4.0E-5
70
192
0
VERTEX
10
0.50039
20
0.50364
30
0.07348
70
192
0
VERTEX
10
0.49911
20
0.50231
30
-3.0E-5
70
192
0
VERTEX
10
0.49963
20
0.50348
30
0.07349
70
192
0
VERTEX
10
0.49844
20
0.50192
30
-2.0E-5
70
192
0
VERTEX
10
0.49896
20
0.50309
30
0.0735
70
192
0
VERTEX
10
0.49792
20
0.50135
30
-1.0E-5
70
192
0
VERTEX
10
0.49844
20
0.50251
30
0.07352
70
192
0
VERTEX
10
0.4976
20
0.50064
30
1.0E-5
70
192
0
VERTEX
10
0.49812
20
0.5018
30
0.07353
70
192
0
VERTEX
10
0.49752
20
0.49987
30
2.0E-5
70
192
0
VERTEX
10
0.49804
20
0.50103
30
0.07354
70
192
0
VERTEX
10
0.49769
20
0.49911
30
3.0E-5
70
192
0
VERTEX
10
0.49821
20
0.50027
30
0.07355
70
192
0
VERTEX
10
0.49808
20
0.49844
30
4.0E-5
70
192
0
VERTEX
10
0.49859
20
0.4996
30
0.07356
70
192
0
VERTEX
10
0.49865
20
0.49792
30
4.0E-5
70
192
0
VERTEX
10
0.49917
20
0.49908
30
0.07356
70
192
0
VERTEX
10
0.49936
20
0.4976
30
4.0E-5
70
192
0
VERTEX
10
0.49988
20
0.49877
30
0.07356
70
192
0
VERTEX
10
0.50013
20
0.49752
30
4.0E-5
70
192
0
VERTEX
10
0.50065
20
0.49869
30
0.07356
70
192
0
VERTEX
10
0.50089
20
0.49769
30
3.0E-5
70
192
0
VERTEX
10
0.50141
20
0.49885
30
0.07355
70
192
0
VERTEX
10
0.50156
20
0.49808
30
2.0E-5
70
192
0
VERTEX
10
0.50208
20
0.49924
30
0.07354
70
192
0
VERTEX
10
0.50208
20
0.49865
30
1.0E-5
70
192
0
VERTEX
10
0.5026
20
0.49982
30
0.07353
70
192
0
VERTEX
10
0.5024
20
0.49936
30
-1.0E-5
70
192
0
VERTEX
10
0.50292
20
0.50053
30
0.07352
70
192
0
VERTEX
10
0.50248
20
0.50013
30
-2.0E-5
70
192
0
VERTEX
10
0.503
20
0.5013
30
0.0735
70
192
0
VERTEX
10
0.50231
20
0.50089
30
-3.0E-5
70
192
0
VERTEX
10
0.50283
20
0.50206
30
0.07349
70
192
0
VERTEX
10
0.50192
20
0.50156
30
-4.0E-5
70
192
0
VERTEX
10
0.50244
20
0.50273
30
0.07348
70
192
0
VERTEX
10
0.50135
20
0.50208
30
-4.0E-5
70
192
0
VERTEX
10
0.50187
20
0.50325
30
0.07348
70
192
0
VERTEX
10
0.50064
20
0.5024
30
-4.0E-5
70
192
0
VERTEX
10
0.50116
20
0.50356
30
0.07348
70
192
0
VERTEX
10
0
20
0
30
0
70
128
71
1
72
3
73
5
74
1
0
VERTEX
10
0
20
0
30
0
70
128
71
2
72
4
73
6
74
2
0
VERTEX
10
0
20
0
30
0
70
128
71
3
72
4
73
6
74
5
0
VERTEX
10
0
20
0
30
0
70
128
71
1
72
5
73
7
74
1
0
VERTEX
10
0
20
0
30
0
70
128
71
2
72
6
73
8
74
2
0
VERTEX
10
0
20
0
30
0
70
128
71
5
72
6
73
8
74
7
0
VERTEX
10
0
20
0
30
0
70
128
71
1
72
7
73
9
74
1
0
VERTEX
10
0
20
0
30
0
70
128
71
2
72
8
73
10
74
2
0
VERTEX
10
0
20
0
30
0
70
128
71
7
72
8
73
10
74
9
0
VERTEX
10
0
20
0
30
0
70
128
71
1
72
9
73
11
74
1
0
VERTEX
10
0
20
0
30
0
70
128
71
2
72
10
73
12
74
2
0
VERTEX
10
0
20
0
30
0
70
128
71
9
72
10
73
12
74
11
0
VERTEX
10
0
20
0
30
0
70
128
71
1
72
11
73
13
74
1
0
VERTEX
10
0
20
0
30
0
70
128
71
2
72
12
73
14
74
2
0
VERTEX
10
0
20
0
30
0
70
128
71
11
72
12
73
14
74
13
0
VERTEX
10
0
20
0
30
0
70
128
71
1
72
13
73
15
74
1
0
VERTEX
10
0
20
0
30
0
70
128
71
2
72
14
73
16
74
2
0
VERTEX
10
0
20
0
30
0
70
128
71
13
72
14
73
16
74
15
0
VERTEX
10
0
20
0
30
0
70
128
71
1
72
15
73
17
74
1
0
VERTEX
10
0
20
0
30
0
70
128
71
2
72
16
73
18
74
2
0
VERTEX
10
0
20
0
30
0
70
128
71
15
72
16
73
18
74
17
0
VERTEX
10
0
20
0
30
0
70
128
71
1
72
17
73
19
74
1
0
VERTEX
10
0
20
0
30
0
70
128
71
2
72
18
73
20
74
2
0
VERTEX
10
0
20
0
30
0
70
128
71
17
72
18
73
20
74
19
0
VERTEX
10
0
20
0
30
0
70
128
71
1
72
19
73
21
74
1
0
VERTEX
10
0
20
0
30
0
70
128
71
2
72
20
73
22
74
2
0
VERTEX
10
0
20
0
30
0
70
128
71
19
72
20
73
22
74
21
0
VERTEX
10
0
20
0
30
0
70
128
71
1
72
21
73
23
74
1
0
VERTEX
10
0
20
0
30
0
70
128
71
2
72
22
73
24
74
2
0
VERTEX
10
0
20
0
30
0
70
128
71
21
72
22
73
24
74
23
0
VERTEX
10
0
20
0
30
0
70
128
71
1
72
23
73
25
74
1
0
VERTEX
10
0
20
0
30
0
70
128
71
2
72
24
73
26
74
2
0
VERTEX
10
0
20
0
30
0
70
128
71
23
72
24
73
26
74
25
0
VERTEX
10
0
20
0
30
0
70
128
71
1
72
25
73
27
74
1
0
VERTEX
10
0
20
0
30
0
70
128
71
2
72
26
73
28
74
2
0
VERTEX
10
0
20
0
30
0
70
128
71
25
72
26
73
28
74
27
0
VERTEX
10
0
20
0
30
0
70
128
71
1
72
27
73
29
74
1
0
VERTEX
10
0
20
0
30
0
70
128
71
2
72
28
73
30
74
2
0
VERTEX
10
0
20
0
30
0
70
128
71
27
72
28
73
30
74
29
0
VERTEX
10
0
20
0
30
0
70
128
71
1
72
29
73
31
74
1
0
VERTEX
10
0
20
0
30
0
70
128
71
2
72
30
73
32
74
2
0
VERTEX
10
0
20
0
30
0
70
128
71
29
72
30
73
32
74
31
0
VERTEX
10
0
20
0
30
0
70
128
71
1
72
31
73
33
74
1
0
VERTEX
10
0
20
0
30
0
70
128
71
2
72
32
73
34
74
2
0
VERTEX
10
0
20
0
30
0
70
128
71
31
72
32
73
34
74
33
0
VERTEX
10
0
20
0
30
0
70
128
71
1
72
33
73
35
74
1
0
VERTEX
10
0
20
0
30
0
70
128
71
2
72
34
73
36
74
2
0
VERTEX
10
0
20
0
30
0
70
128
71
33
72
34
73
36
74
35
0
VERTEX
10
0
20
0
30
0
70
128
71
1
72
35
73
37
74
1
0
VERTEX
10
0
20
0
30
0
70
128
71
2
72
36
73
38
74
2
0
VERTEX
10
0
20
0
30
0
70
128
71
35
72
36
73
38
74
37
0
VERTEX
10
0
20
0
30
0
70
128
71
1
72
37
73
39
74
1
0
VERTEX
10
0
20
0
30
0
70
128
71
2
72
38
73
40
74
2
0
VERTEX
10
0
20
0
30
0
70
128
71
37
72
38
73
40
74
39
0
VERTEX
10
0
20
0
30
0
70
128
71
1
72
39
73
41
74
1
0
VERTEX
10
0
20
0
30
0
70
128
71
2
72
40
73
42
74
2
0
VERTEX
10
0
20
0
30
0
70
128
71
39
72
40
73
42
74
41
0
VERTEX
10
0
20
0
30
0
70
128
71
1
72
41
73
3
74
1
0
VERTEX
10
0
20
0
30
0
70
128
71
2
72
42
73
4
74
2
0
VERTEX
10
0
20
0
30
0
70
128
71
41
72
42
73
4
74
3
0
SEQEND
0
POLYLINE
70
64
71
42
72
60
0
VERTEX
10
0.50052
20
0.50116
30
0.07352
70
192
0
VERTEX
10
0.50122
20
0.50175
30
0.15208
70
192
0
VERTEX
10
0.49884
20
0.49949
30
0.07355
70
192
0
VERTEX
10
0.49954
20
0.50007
30
0.15211
70
192
0
VERTEX
10
0.49944
20
0.49905
30
0.07355
70
192
0
VERTEX
10
0.50014
20
0.49964
30
0.1521
70
192
0
VERTEX
10
0.50015
20
0.49882
30
0.07354
70
192
0
VERTEX
10
0.50084
20
0.49941
30
0.1521
70
192
0
VERTEX
10
0.50089
20
0.49882
30
0.07354
70
192
0
VERTEX
10
0.50159
20
0.49941
30
0.15209
70
192
0
VERTEX
10
0.5016
20
0.49905
30
0.07353
70
192
0
VERTEX
10
0.50229
20
0.49964
30
0.15209
70
192
0
VERTEX
10
0.5022
20
0.49948
30
0.07352
70
192
0
VERTEX
10
0.50289
20
0.50007
30
0.15208
70
192
0
VERTEX
10
0.50263
20
0.50009
30
0.07351
70
192
0
VERTEX
10
0.50333
20
0.50067
30
0.15207
70
192
0
VERTEX
10
0.50286
20
0.50079
30
0.0735
70
192
0
VERTEX
10
0.50356
20
0.50138
30
0.15206
70
192
0
VERTEX
10
0.50286
20
0.50153
30
0.0735
70
192
0
VERTEX
10
0.50356
20
0.50212
30
0.15206
70
192
0
VERTEX
10
0.50264
20
0.50224
30
0.0735
70
192
0
VERTEX
10
0.50333
20
0.50283
30
0.15205
70
192
0
VERTEX
10
0.5022
20
0.50284
30
0.07349
70
192
0
VERTEX
10
0.5029
20
0.50343
30
0.15205
70
192
0
VERTEX
10
0.5016
20
0.50328
30
0.0735
70
192
0
VERTEX
10
0.5023
20
0.50387
30
0.15205
70
192
0
VERTEX
10
0.50089
20
0.50351
30
0.0735
70
192
0
VERTEX
10
0.50159
20
0.5041
30
0.15206
70
192
0
VERTEX
10
0.50015
20
0.50351
30
0.07351
70
192
0
VERTEX
10
0.50085
20
0.5041
30
0.15207
70
192
0
VERTEX
10
0.49944
20
0.50328
30
0.07352
70
192
0
VERTEX
10
0.50014
20
0.50387
30
0.15207
70
192
0
VERTEX
10
0.49884
20
0.50284
30
0.07352
70
192
0
VERTEX
10
0.49954
20
0.50343
30
0.15208
70
192
0
VERTEX
10
0.4984
20
0.50224
30
0.07353
70
192
0
VERTEX
10
0.4991
20
0.50283
30
0.15209
70
192
0
VERTEX
10
0.49817
20
0.50154
30
0.07354
70
192
0
VERTEX
10
0.49887
20
0.50213
30
0.1521
70
192
0
VERTEX
10
0.49817
20
0.50079
30
0.07355
70
192
0
VERTEX
10
0.49887
20
0.50138
30
0.1521
70
192
0
VERTEX
10
0.4984
20
0.50009
30
0.07355
70
192
0
VERTEX
10
0.4991
20
0.50068
30
0.15211
70
192
0
VERTEX
10
0
20
0
30
0
70
128
71
1
72
3
73
5
74
1
0
VERTEX
10
0
20
0
30
0
70
128
71
2
72
4
73
6
74
2
0
VERTEX
10
0
20
0
30
0
70
128
71
3
72
4
73
6
74
5
0
VERTEX
10
0
20
0
30
0
70
128
71
1
72
5
73
7
74
1
0
VERTEX
10
0
20
0
30
0
70
128
71
2
72
6
73
8
74
2
0
VERTEX
10
0
20
0
30
0
70
128
71
5
72
6
73
8
74
7
0
VERTEX
10
0
20
0
30
0
70
128
71
1
72
7
73
9
74
1
0
VERTEX
10
0
20
0
30
0
70
128
71
2
72
8
73
10
74
2
0
VERTEX
10
0
20
0
30
0
70
128
71
7
72
8
73
10
74
9
0
VERTEX
10
0
20
0
30
0
70
128
71
1
72
9
73
11
74
1
0
VERTEX
10
0
20
0
30
0
70
128
71
2
72
10
73
12
74
2
0
VERTEX
10
0
20
0
30
0
70
128
71
9
72
10
73
12
74
11
0
VERTEX
10
0
20
0
30
0
70
128
71
1
72
11
73
13
74
1
0
VERTEX
10
0
20
0
30
0
70
128
71
2
72
12
73
14
74
2
0
VERTEX
10
0
20
0
30
0
70
128
71
11
72
12
73
14
74
13
0
VERTEX
10
0
20
0
30
0
70
128
71
1
72
13
73
15
74
1
0
VERTEX
10
0
20
0
30
0
70
128
71
2
72
14
73
16
74
2
0
VERTEX
10
0
20
0
30
0
70
128
71
13
72
14
73
16
74
15
0
VERTEX
10
0
20
0
30
0
70
128
71
1
72
15
73
17
74
1
0
VERTEX
10
0
20
0
30
0
70
128
71
2
72
16
73
18
74
2
0
VERTEX
10
0
20
0
30
0
70
128
71
15
72
16
73
18
74
17
0
VERTEX
10
0
20
0
30
0
70
128
71
1
72
17
73
19
74
1
0
VERTEX
10
0
20
0
30
0
70
128
71
2
72
18
73
20
74
2
0
VERTEX
10
0
20
0
30
0
70
128
71
17
72
18
73
20
74
19
0
VERTEX
10
0
20
0
30
0
70
128
71
1
72
19
73
21
74
1
0
VERTEX
10
0
20
0
30
0
70
128
71
2
72
20
73
22
74
2
0
VERTEX
10
0
20
0
30
0
70
128
71
19
72
20
73
22
74
21
0
VERTEX
10
0
20
0
30
0
70
128
71
1
72
21
73
23
74
1
0
VERTEX
10
0
20
0
30
0
70
128
71
2
72
22
73
24
74
2
0
VERTEX
10
0
20
0
30
0
70
128
71
21
72
22
73
24
74
23
0
VERTEX
10
0
20
0
30
0
70
128
71
1
72
23
73
25
74
1
0
VERTEX
10
0
20
0
30
0
70
128
71
2
72
24
73
26
74
2
0
VERTEX
10
0
20
0
30
0
70
128
71
23
72
24
73
26
74
25
0
VERTEX
10
0
20
0
30
0
70
128
71
1
72
25
73
27
74
1
0
VERTEX
10
0
20
0
30
0
70
128
71
2
72
26
73
28
74
2
0
VERTEX
10
0
20
0
30
0
70
128
71
25
72
26
73
28
74
27
0
VERTEX
10
0
20
0
30
0
70
128
71
1
72
27
73
29
74
1
0
VERTEX
10
0
20
0
30
0
70
128
71
2
72
28
73
30
74
2
0
VERTEX
10
0
20
0
30
0
70
128
71
27
72
28
73
30
74
29
0
VERTEX
10
0
20
0
30
0
70
128
71
1
72
29
73
31
74
1
0
VERTEX
10
0
20
0
30
0
70
128
71
2
72
30
73
32
74
2
0
VERTEX
10
0
20
0
30
0
70
128
71
29
72
30
73
32
74
31
0
VERTEX
10
0
20
0
30
0
70
128
71
1
72
31
73
33
74
1
0
VERTEX
10
0
20
0
30
0
70
128
71
2
72
32
73
34
74
2
0
VERTEX
10
0
20
0
30
0
70
128
71
31
72
32
73
34
74
33
0
VERTEX
10
0
20
0
30
0
70
128
71
1
72
33
73
35
74
1
0
VERTEX
10
0
20
0
30
0
70
128
71
2
72
34
73
36
74
2
0
VERTEX
10
0
20
0
30
0
70
128
71
33
72
34
73
36
74
35
0
VERTEX
10
0
20
0
30
0
70
128
71
1
72
35
73
37
74
1
0
VERTEX
10
0
20
0
30
0
70
128
71
2
72
36
73
38
74
2
0
VERTEX
10
0
20
0
30
0
70
128
71
35
72
36
73
38
74
37
0
VERTEX
10
0
20
0
30
0
70
128
71
1
72
37
73
39
74
1
0
VERTEX
10
0
20
0
30
0
70
128
71
2
72
38
73
40
74
2
0
VERTEX
10
0
20
0
30
0
70
128
71
37
72
38
73
40
74
39
0
VERTEX
10
0
20
0
30
0
70
128
71
1
72
39
73
41
74
1
0
VERTEX
10
0
20
0
30
0
70
128
71
2
72
40
73
42
74
2
0
VERTEX
10
0
20
0
30
0
70
128
71
39
72
40
73
42
74
41
0
VERTEX
10
0
20
0
30
0
70
128
71
1
72
41
73
3
74
1
0
VERTEX
10
0
20
0
30
0
70
128
71
2
72
42
73
4
74
2
0
VERTEX
10
0
20
0
30
0
70
128
71
41
72
42
73
4
74
3
0
SEQEND
0
POLYLINE
70
64
71
42
72
60
0
VERTEX
10
0.50122
20
0.50175
30
0.15208
70
192
0
VERTEX
10
0.50177
20
0.50154
30
0.23494
70
192
0
VERTEX
10
0.50302
20
0.50183
30
0.15207
70
192
0
VERTEX
10
0.50357
20
0.50161
30
0.23493
70
192
0
VERTEX
10
0.50291
20
0.50238
30
0.15207
70
192
0
VERTEX
10
0.50346
20
0.50216
30
0.23493
70
192
0
VERTEX
10
0.50263
20
0.50287
30
0.15207
70
192
0
VERTEX
10
0.50318
20
0.50266
30
0.23494
70
192
0
VERTEX
10
0.50222
20
0.50326
30
0.15208
70
192
0
VERTEX
10
0.50277
20
0.50304
30
0.23494
70
192
0
VERTEX
10
0.5017
20
0.50349
30
0.15208
70
192
0
VERTEX
10
0.50226
20
0.50327
30
0.23495
70
192
0
VERTEX
10
0.50114
20
0.50356
30
0.15208
70
192
0
VERTEX
10
0.50169
20
0.50334
30
0.23495
70
192
0
VERTEX
10
0.50059
20
0.50345
30
0.15209
70
192
0
VERTEX
10
0.50114
20
0.50323
30
0.23495
70
192
0
VERTEX
10
0.5001
20
0.50317
30
0.15209
70
192
0
VERTEX
10
0.50065
20
0.50295
30
0.23496
70
192
0
VERTEX
10
0.49971
20
0.50275
30
0.15209
70
192
0
VERTEX
10
0.50026
20
0.50254
30
0.23496
70
192
0
VERTEX
10
0.49948
20
0.50224
30
0.15209
70
192
0
VERTEX
10
0.50003
20
0.50202
30
0.23496
70
192
0
VERTEX
10
0.49941
20
0.50168
30
0.15209
70
192
0
VERTEX
10
0.49996
20
0.50146
30
0.23496
70
192
0
VERTEX
10
0.49952
20
0.50112
30
0.15209
70
192
0
VERTEX
10
0.50007
20
0.50091
30
0.23495
70
192
0
VERTEX
10
0.4998
20
0.50063
30
0.15209
70
192
0
VERTEX
10
0.50035
20
0.50041
30
0.23495
70
192
0
VERTEX
10
0.50022
20
0.50025
30
0.15208
70
192
0
VERTEX
10
0.50077
20
0.50003
30
0.23495
70
192
0
VERTEX
10
0.50073
20
0.50001
30
0.15208
70
192
0
VERTEX
10
0.50128
20
0.4998
30
0.23494
70
192
0
VERTEX
10
0.50129
20
0.49995
30
0.15207
70
192
0
VERTEX
10
0.50184
20
0.49973
30
0.23494
70
192
0
VERTEX
10
0.50184
20
0.50006
30
0.15207
70
192
0
VERTEX
10
0.5024
20
0.49984
30
0.23494
70
192
0
VERTEX
10
0.50234
20
0.50034
30
0.15207
70
192
0
VERTEX
10
0.50289
20
0.50012
30
0.23493
70
192
0
VERTEX
10
0.50272
20
0.50075
30
0.15207
70
192
0
VERTEX
10
0.50327
20
0.50053
30
0.23493
70
192
0
VERTEX
10
0.50296
20
0.50127
30
0.15207
70
192
0
VERTEX
10
0.50351
20
0.50105
30
0.23493
70
192
0
VERTEX
10
0
20
0
30
0
70
128
71
1
72
3
73
5
74
1
0
VERTEX
10
0
20
0
30
0
70
128
71
2
72
4
73
6
74
2
0
VERTEX
10
0
20
0
30
0
70
128
71
3
72
4
73
6
74
5
0
VERTEX
10
0
20
0
30
0
70
128
71
1
72
5
73
7
74
1
0
VERTEX
10
0
20
0
30
0
70
128
71
2
72
6
73
8
74
2
0
VERTEX
10
0
20
0
30
0
70
128
71
5
72
6
73
8
74
7
0
VERTEX
10
0
20
0
30
0
70
128
71
1
72
7
73
9
74
1
0
VERTEX
10
0
20
0
30
0
70
128
71
2
72
8
73
10
74
2
0
VERTEX
10
0
20
0
30
0
70
128
71
7
72
8
73
10
74
9
0
VERTEX
10
0
20
0
30
0
70
128
71
1
72
9
73
11
74
1
0
VERTEX
10
0
20
0
30
0
70
128
71
2
72
10
73
12
74
2
0
VERTEX
10
0
20
0
30
0
70
128
71
9
72
10
73
12
74
11
0
VERTEX
10
0
20
0
30
0
70
128
71
1
72
11
73
13
74
1
0
VERTEX
10
0
20
0
30
0
70
128
71
2
72
12
73
14
74
2
0
VERTEX
10
0
20
0
30
0
70
128
71
11
72
12
73
14
74
13
0
VERTEX
10
0
20
0
30
0
70
128
71
1
72
13
73
15
74
1
0
VERTEX
10
0
20
0
30
0
70
128
71
2
72
14
73
16
74
2
0
VERTEX
10
0
20
0
30
0
70
128
71
13
72
14
73
16
74
15
0
VERTEX
10
0
20
0
30
0
70
128
71
1
72
15
73
17
74
1
0
VERTEX
10
0
20
0
30
0
70
128
71
2
72
16
73
18
74
2
0
VERTEX
10
0
20
0
30
0
70
128
71
15
72
16
73
18
74
17
0
VERTEX
10
0
20
0
30
0
70
128
71
1
72
17
73
19
74
1
0
VERTEX
10
0
20
0
30
0
70
128
71
2
72
18
73
20
74
2
0
VERTEX
10
0
20
0
30
0
70
128
71
17
72
18
73
20
74
19
0
VERTEX
10
0
20
0
30
0
70
128
71
1
72
19
73
21
74
1
0
VERTEX
10
0
20
0
30
0
70
128
71
2
72
20
73
22
74
2
0
VERTEX
10
0
20
0
30
0
70
128
71
19
72
20
73
22
74
21
0
VERTEX
10
0
20
0
30
0
70
128
71
1
72
21
73
23
74
1
0
VERTEX
10
0
20
0
30
0
70
128
71
2
72
22
73
24
74
2
0
VERTEX
10
0
20
0
30
0
70
128
71
21
72
22
73
24
74
23
0
VERTEX
10
0
20
0
30
0
70
128
71
1
72
23
73
25
74
1
0
VERTEX
10
0
20
0
30
0
70
128
71
2
72
24
73
26
74
2
0
VERTEX
10
0
20
0
30
0
70
128
71
23
72
24
73
26
74
25
0
VERTEX
10
0
20
0
30
0
70
128
71
1
72
25
73
27
74
1
0
VERTEX
10
0
20
0
30
0
70
128
71
2
72
26
73
28
74
2
0
VERTEX
10
0
20
0
30
0
70
128
71
25
72
26
73
28
74
27
0
VERTEX
10
0
20
0
30
0
70
128
71
1
72
27
73
29
74
1
0
VERTEX
10
0
20
0
30
0
70
128
71
2
72
28
73
30
74
2
0
VERTEX
10
0
20
0
30
0
70
128
71
27
72
28
73
30
74
29
0
VERTEX
10
0
20
0
30
0
70
128
71
1
72
29
73
31
74
1
0
VERTEX
10
0
20
0
30
0
70
128
71
2
72
30
73
32
74
2
0
VERTEX
10
0
20
0
30
0
70
128
71
29
72
30
73
32
74
31
0
VERTEX
10
0
20
0
30
0
70
128
71
1
72
31
73
33
74
1
0
VERTEX
10
0
20
0
30
0
70
128
71
2
72
32
73
34
74
2
0
VERTEX
10
0
20
0
30
0
70
128
71
31
72
32
73
34
74
33
0
VERTEX
10
0
20
0
30
0
70
128
71
1
72
33
73
35
74
1
0
VERTEX
10
0
20
0
30
0
70
128
71
2
72
34
73
36
74
2
0
VERTEX
10
0
20
0
30
0
70
128
71
33
72
34
73
36
74
35
0
VERTEX
10
0
20
0
30
0
70
128
71
1
72
35
73
37
74
1
0
VERTEX
10
0
20
0
30
0
70
128
71
2
72
36
73
38
74
2
0
VERTEX
10
0
20
0
30
0
70
128
71
35
72
36
73
38
74
37
0
VERTEX
10
0
20
0
30
0
70
128
71
1
72
37
73
39
74
1
0
VERTEX
10
0
20
0
30
0
70
128
71
2
72
38
73
40
74
2
0
VERTEX
10
0
20
0
30
0
70
128
71
37
72
38
73
40
74
39
0
VERTEX
10
0
20
0
30
0
70
128
71
1
72
39
73
41
74
1
0
VERTEX
10
0
20
0
30
0
70
128
71
2
72
40
73
42
74
2
0
VERTEX
10
0
20
0
30
0
70
128
71
39
72
40
73
42
74
41
0
VERTEX
10
0
20
0
30
0
70
128
71
1
72
41
73
3
74
1
0
VERTEX
10
0
20
0
30
0
70
128
71
2
72
42
73
4
74
2
0
VERTEX
10
0
20
0
30
0
70
128
71
41
72
42
73
4
74
3
0
SEQEND
0
POLYLINE
70
64
71
42
72
60
0
VERTEX
10
0.50177
20
0.50154
30
0.23494
70
192
0
VERTEX
10
0.50196
20
0.50157
30
0.26211
70
192
0
VERTEX
10
0.50112
20
0.502
30
0.23495
70
192
0
VERTEX
10
0.50131
20
0.50203
30
0.26211
70
192
0
VERTEX
10
0.50101
20
0.50177
30
0.23495
70
192
0
VERTEX
10
0.5012
20
0.50181
30
0.26211
70
192
0
VERTEX
10
0.50097
20
0.50153
30
0.23495
70
192
0
VERTEX
10
0.50116
20
0.50156
30
0.26211
70
192
0
VERTEX
10
0.50101
20
0.50128
30
0.23495
70
192
0
VERTEX
10
0.50121
20
0.50132
30
0.26211
70
192
0
VERTEX
10
0.50113
20
0.50106
30
0.23495
70
192
0
VERTEX
10
0.50132
20
0.5011
30
0.26211
70
192
0
VERTEX
10
0.50131
20
0.50089
30
0.23495
70
192
0
VERTEX
10
0.5015
20
0.50092
30
0.26211
70
192
0
VERTEX
10
0.50153
20
0.50078
30
0.23495
70
192
0
VERTEX
10
0.50172
20
0.50081
30
0.26211
70
192
0
VERTEX
10
0.50178
20
0.50074
30
0.23495
70
192
0
VERTEX
10
0.50197
20
0.50078
30
0.26211
70
192
0
VERTEX
10
0.50202
20
0.50078
30
0.23494
70
192
0
VERTEX
10
0.50222
20
0.50082
30
0.26211
70
192
0
VERTEX
10
0.50224
20
0.5009
30
0.23494
70
192
0
VERTEX
10
0.50244
20
0.50094
30
0.26211
70
192
0
VERTEX
10
0.50242
20
0.50108
30
0.23494
70
192
0
VERTEX
10
0.50261
20
0.50111
30
0.2621
70
192
0
VERTEX
10
0.50253
20
0.5013
30
0.23494
70
192
0
VERTEX
10
0.50272
20
0.50134
30
0.2621
70
192
0
VERTEX
10
0.50256
20
0.50155
30
0.23494
70
192
0
VERTEX
10
0.50276
20
0.50158
30
0.2621
70
192
0
VERTEX
10
0.50252
20
0.50179
30
0.23494
70
192
0
VERTEX
10
0.50271
20
0.50183
30
0.2621
70
192
0
VERTEX
10
0.50241
20
0.50201
30
0.23494
70
192
0
VERTEX
10
0.5026
20
0.50205
30
0.2621
70
192
0
VERTEX
10
0.50223
20
0.50219
30
0.23494
70
192
0
VERTEX
10
0.50242
20
0.50222
30
0.2621
70
192
0
VERTEX
10
0.502
20
0.5023
30
0.23494
70
192
0
VERTEX
10
0.5022
20
0.50233
30
0.26211
70
192
0
VERTEX
10
0.50176
20
0.50233
30
0.23494
70
192
0
VERTEX
10
0.50195
20
0.50237
30
0.26211
70
192
0
VERTEX
10
0.50151
20
0.50229
30
0.23494
70
192
0
VERTEX
10
0.50171
20
0.50233
30
0.26211
70
192
0
VERTEX
10
0.50129
20
0.50217
30
0.23495
70
192
0
VERTEX
10
0.50148
20
0.50221
30
0.26211
70
192
0
VERTEX
10
0
20
0
30
0
70
128
71
1
72
3
73
5
74
1
0
VERTEX
10
0
20
0
30
0
70
128
71
2
72
4
73
6
74
2
0
VERTEX
10
0
20
0
30
0
70
128
71
3
72
4
73
6
74
5
0
VERTEX
10
0
20
0
30
0
70
128
71
1
72
5
73
7
74
1
0
VERTEX
10
0
20
0
30
0
70
128
71
2
72
6
73
8
74
2
0
VERTEX
10
0
20
0
30
0
70
128
71
5
72
6
73
8
74
7
0
VERTEX
10
0
20
0
30
0
70
128
71
1
72
7
73
9
74
1
0
VERTEX
10
0
20
0
30
0
70
128
71
2
72
8
73
10
74
2
0
VERTEX
10
0
20
0
30
0
70
128
71
7
72
8
73
10
74
9
0
VERTEX
10
0
20
0
30
0
70
128
71
1
72
9
73
11
74
1
0
VERTEX
10
0
20
0
30
0
70
128
71
2
72
10
73
12
74
2
0
VERTEX
10
0
20
0
30
0
70
128
71
9
72
10
73
12
74
11
0
VERTEX
10
0
20
0
30
0
70
128
71
1
72
11
73
13
74
1
0
VERTEX
10
0
20
0
30
0
70
128
71
2
72
12
73
14
74
2
0
VERTEX
10
0
20
0
30
0
70
128
71
11
72
12
73
14
74
13
0
VERTEX
10
0
20
0
30
0
70
128
71
1
72
13
73
15
74
1
0
VERTEX
10
0
20
0
30
0
70
128
71
2
72
14
73
16
74
2
0
VERTEX
10
0
20
0
30
0
70
128
71
13
72
14
73
16
74
15
0
VERTEX
10
0
20
0
30
0
70
128
71
1
72
15
73
17
74
1
0
VERTEX
10
0
20
0
30
0
70
128
71
2
72
16
73
18
74
2
0
VERTEX
10
0
20
0
30
0
70
128
71
15
72
16
73
18
74
17
0
VERTEX
10
0
20
0
30
0
70
128
71
1
72
17
73
19
74
1
0
VERTEX
10
0
20
0
30
0
70
128
71
2
72
18
73
20
74
2
0
VERTEX
10
0
20
0
30
0
70
128
71
17
72
18
73
20
74
19
0
VERTEX
10
0
20
0
30
0
70
128
71
1
72
19
73
21
74
1
0
VERTEX
10
0
20
0
30
0
70
128
71
2
72
20
73
22
74
2
0
VERTEX
10
0
20
0
30
0
70
128
71
19
72
20
73
22
74
21
0
VERTEX
10
0
20
0
30
0
70
128
71
1
72
21
73
23
74
1
0
VERTEX
10
0
20
0
30
0
70
128
71
2
72
22
73
24
74
2
0
VERTEX
10
0
20
0
30
0
70
128
71
21
72
22
73
24
74
23
0
VERTEX
10
0
20
0
30
0
70
128
71
1
72
23
73
25
74
1
0
VERTEX
10
0
20
0
30
0
70
128
71
2
72
24
73
26
74
2
0
VERTEX
10
0
20
0
30
0
70
128
71
23
72
24
73
26
74
25
0
VERTEX
10
0
20
0
30
0
70
128
71
1
72
25
73
27
74
1
0
VERTEX
10
0
20
0
30
0
70
128
71
2
72
26
73
28
74
2
0
VERTEX
10
0
20
0
30
0
70
128
71
25
72
26
73
28
74
27
0
VERTEX
10
0
20
0
30
0
70
128
71
1
72
27
73
29
74
1
0
VERTEX
10
0
20
0
30
0
70
128
71
2
72
28
73
30
74
2
0
VERTEX
10
0
20
0
30
0
70
128
71
27
72
28
73
30
74
29
0
VERTEX
10
0
20
0
30
0
70
128
71
1
72
29
73
31
74
1
0
VERTEX
10
0
20
0
30
0
70
128
71
2
72
30
73
32
74
2
0
VERTEX
10
0
20
0
30
0
70
128
71
29
72
30
73
32
74
31
0
VERTEX
10
0
20
0
30
0
70
128
71
1
72
31
73
33
74
1
0
VERTEX
10
0
20
0
30
0
70
128
71
2
72
32
73
34
74
2
0
VERTEX
10
0
20
0
30
0
70
128
71
31
72
32
73
34
74
33
0
VERTEX
10
0
20
0
30
0
70
128
71
1
72
33
73
35
74
1
0
VERTEX
10
0
20
0
30
0
70
128
71
2
72
34
73
36
74
2
0
VERTEX
10
0
20
0
30
0
70
128
71
33
72
34
73
36
74
35
0
VERTEX
10
0
20
0
30
0
70
128
71
1
72
35
73
37
74
1
0
VERTEX
10
0
20
0
30
0
70
128
71
2
72
36
73
38
74
2
0
VERTEX
10
0
20
0
30
0
70
128
71
35
72
36
73
38
74
37
0
VERTEX
10
0
20
0
30
0
70
128
71
1
72
37
73
39
74
1
0
VERTEX
10
0
20
0
30
0
70
128
71
2
72
38
73
40
74
2
0
VERTEX
10
0
20
0
30
0
70
128
71
37
72
38
73
40
74
39
0
VERTEX
10
0
20
0
30
0
70
128
71
1
72
39
73
41
74
1
0
VERTEX
10
0
20
0
30
0
70
128
71
2
72
40
73
42
74
2
0
VERTEX
10
0
20
0
30
0
70
128
71
39
72
40
73
42
74
41
0
VERTEX
10
0
20
0
30
0
70
128
71
1
72
41
73
3
74
1
0
VERTEX
10
0
20
0
30
0
70
128
71
2
72
42
73
4
74
2
0
VERTEX
10
0
20
0
30
0
70
128
71
41
72
42
73
4
74
3
0
SEQEND
0
ENDSEC
0
EOF
